<svg xmlns="http://www.w3.org/2000/svg" xmlns:xlink="http://www.w3.org/1999/xlink" width="2000" zoomAndPan="magnify" viewBox="0 0 1500 307.91998" height="400" preserveAspectRatio="xMidYMid meet" version="1.0"><defs><g/><clipPath id="6b09637c72"><path d="M 806 1 L 1352 1 L 1352 298.480469 L 806 298.480469 Z M 806 1 " clip-rule="nonzero"/></clipPath><clipPath id="bfd6b5af7e"><rect x="0" width="546" y="0" height="298"/></clipPath><clipPath id="46334daef7"><rect x="0" width="1414" y="0" height="299"/></clipPath></defs><g transform="matrix(1, 0, 0, 1, 1, 0)"><g clip-path="url(#46334daef7)"><g fill="#ffffff" fill-opacity="1"><g transform="translate(0.938984, 223.213705)"><g><path d="M 99.03125 4.953125 C 85.988281 4.953125 73.894531 2.601562 62.75 -2.09375 C 51.613281 -6.800781 41.957031 -13.238281 33.78125 -21.40625 C 25.613281 -29.582031 19.175781 -39.238281 14.46875 -50.375 C 9.769531 -61.519531 7.421875 -73.609375 7.421875 -86.640625 C 7.421875 -99.679688 9.769531 -111.769531 14.46875 -122.90625 C 19.175781 -134.050781 25.613281 -143.707031 33.78125 -151.875 C 41.957031 -160.050781 51.613281 -166.488281 62.75 -171.1875 C 73.894531 -175.894531 85.988281 -178.25 99.03125 -178.25 C 110.414062 -178.25 120.851562 -176.554688 130.34375 -173.171875 C 139.832031 -169.785156 147.914062 -165.578125 154.59375 -160.546875 C 161.28125 -155.515625 166.476562 -150.109375 170.1875 -144.328125 C 173.90625 -138.554688 175.765625 -133.359375 175.765625 -128.734375 C 175.765625 -124.929688 175.019531 -121.378906 173.53125 -118.078125 C 172.050781 -114.785156 170.070312 -111.898438 167.59375 -109.421875 C 165.125 -106.941406 162.238281 -105 158.9375 -103.59375 C 155.632812 -102.195312 152.164062 -101.5 148.53125 -101.5 C 142.925781 -101.5 138.554688 -102.695312 135.421875 -105.09375 C 132.285156 -107.488281 130.054688 -109.59375 128.734375 -111.40625 C 127.410156 -113.21875 125.84375 -115.15625 124.03125 -117.21875 C 122.21875 -119.28125 120.070312 -121.175781 117.59375 -122.90625 C 115.113281 -124.644531 112.304688 -126.050781 109.171875 -127.125 C 106.035156 -128.195312 102.65625 -128.734375 99.03125 -128.734375 C 94.070312 -128.734375 89.363281 -127.703125 84.90625 -125.640625 C 80.457031 -123.578125 76.5 -120.6875 73.03125 -116.96875 C 69.5625 -113.257812 66.835938 -108.804688 64.859375 -103.609375 C 62.878906 -98.410156 61.890625 -92.753906 61.890625 -86.640625 C 61.890625 -80.367188 62.878906 -74.675781 64.859375 -69.5625 C 66.835938 -64.445312 69.5625 -60.03125 73.03125 -56.3125 C 76.5 -52.601562 80.457031 -49.71875 84.90625 -47.65625 C 89.363281 -45.59375 94.070312 -44.5625 99.03125 -44.5625 C 102.65625 -44.5625 106.035156 -45.097656 109.171875 -46.171875 C 112.304688 -47.242188 115.113281 -48.644531 117.59375 -50.375 C 120.070312 -52.113281 122.21875 -54.015625 124.03125 -56.078125 C 125.84375 -58.140625 127.410156 -60.078125 128.734375 -61.890625 C 130.054688 -63.703125 132.285156 -65.804688 135.421875 -68.203125 C 138.554688 -70.597656 142.925781 -71.796875 148.53125 -71.796875 C 152.164062 -71.796875 155.632812 -71.050781 158.9375 -69.5625 C 162.238281 -68.082031 165.125 -66.101562 167.59375 -63.625 C 170.070312 -61.144531 172.050781 -58.253906 173.53125 -54.953125 C 175.019531 -51.648438 175.765625 -48.1875 175.765625 -44.5625 C 175.765625 -39.9375 173.90625 -34.734375 170.1875 -28.953125 C 166.476562 -23.179688 161.28125 -17.78125 154.59375 -12.75 C 147.914062 -7.71875 139.832031 -3.507812 130.34375 -0.125 C 120.851562 3.257812 110.414062 4.953125 99.03125 4.953125 Z M 99.03125 4.953125 "/></g></g></g><g fill="#ffffff" fill-opacity="1"><g transform="translate(181.659835, 223.213705)"><g><path d="M 42.078125 0 C 33.992188 0 27.4375 -2.472656 22.40625 -7.421875 C 17.375 -12.378906 14.859375 -18.570312 14.859375 -26 L 14.859375 -147.296875 C 14.859375 -154.722656 17.375 -160.910156 22.40625 -165.859375 C 27.4375 -170.816406 33.992188 -173.296875 42.078125 -173.296875 L 89.125 -173.296875 C 99.6875 -173.296875 109.09375 -171.847656 117.34375 -168.953125 C 125.59375 -166.066406 132.5625 -162.023438 138.25 -156.828125 C 143.945312 -151.628906 148.320312 -145.484375 151.375 -138.390625 C 154.4375 -131.296875 155.96875 -123.535156 155.96875 -115.109375 C 155.96875 -107.847656 154.9375 -101.660156 152.875 -96.546875 C 150.8125 -91.429688 148.539062 -87.222656 146.0625 -83.921875 C 143.09375 -79.960938 139.789062 -76.742188 136.15625 -74.265625 L 152.25 -44.5625 C 153.40625 -42.414062 154.394531 -40.1875 155.21875 -37.875 C 156.039062 -35.894531 156.78125 -33.75 157.4375 -31.4375 C 158.101562 -29.125 158.4375 -26.894531 158.4375 -24.75 C 158.4375 -17.820312 155.921875 -11.960938 150.890625 -7.171875 C 145.859375 -2.390625 139.296875 0 131.203125 0 C 127.078125 0 123.691406 -0.617188 121.046875 -1.859375 C 118.410156 -3.097656 116.269531 -4.539062 114.625 -6.1875 C 112.800781 -8 111.316406 -10.0625 110.171875 -12.375 L 86.640625 -56.9375 L 69.3125 -56.9375 L 69.3125 -26 C 69.3125 -18.570312 66.796875 -12.378906 61.765625 -7.421875 C 56.734375 -2.472656 50.171875 0 42.078125 0 Z M 89.125 -106.453125 C 92.257812 -106.453125 94.691406 -107.273438 96.421875 -108.921875 C 98.160156 -110.578125 99.03125 -112.640625 99.03125 -115.109375 C 99.03125 -117.585938 98.160156 -119.648438 96.421875 -121.296875 C 94.691406 -122.953125 92.257812 -123.78125 89.125 -123.78125 L 69.3125 -123.78125 L 69.3125 -106.453125 Z M 89.125 -106.453125 "/></g></g></g><g fill="#ffffff" fill-opacity="1"><g transform="translate(350.002533, 223.213705)"><g><path d="M 30.9375 0 C 22.195312 0 15.265625 -2.472656 10.140625 -7.421875 C 5.023438 -12.378906 2.46875 -18.570312 2.46875 -26 C 2.46875 -27.476562 2.632812 -29.082031 2.96875 -30.8125 C 3.300781 -32.550781 3.710938 -34.164062 4.203125 -35.65625 C 4.867188 -37.46875 5.53125 -39.195312 6.1875 -40.84375 L 51.984375 -155.96875 C 53.640625 -159.59375 55.867188 -162.890625 58.671875 -165.859375 C 60.984375 -168.335938 64.117188 -170.609375 68.078125 -172.671875 C 72.035156 -174.734375 76.988281 -175.765625 82.9375 -175.765625 C 88.707031 -175.765625 93.613281 -174.734375 97.65625 -172.671875 C 101.707031 -170.609375 104.882812 -168.335938 107.1875 -165.859375 C 110 -162.890625 112.226562 -159.59375 113.875 -155.96875 L 159.671875 -40.84375 L 161.40625 -35.65625 C 161.90625 -34.164062 162.359375 -32.550781 162.765625 -30.8125 C 163.179688 -29.082031 163.390625 -27.476562 163.390625 -26 C 163.390625 -18.570312 160.832031 -12.378906 155.71875 -7.421875 C 150.601562 -2.472656 143.671875 0 134.921875 0 C 129.972656 0 125.804688 -1.03125 122.421875 -3.09375 C 119.035156 -5.15625 116.351562 -7.425781 114.375 -9.90625 C 112.0625 -12.875 110.242188 -16.175781 108.921875 -19.8125 L 106.453125 -27.234375 L 59.421875 -27.234375 L 56.9375 -19.8125 C 55.457031 -16.175781 53.5625 -12.875 51.25 -9.90625 C 49.269531 -7.425781 46.628906 -5.15625 43.328125 -3.09375 C 40.023438 -1.03125 35.894531 0 30.9375 0 Z M 94.078125 -66.84375 L 84.171875 -96.546875 L 81.703125 -96.546875 L 71.796875 -66.84375 Z M 94.078125 -66.84375 "/></g></g></g><g fill="#ffffff" fill-opacity="1"><g transform="translate(515.869646, 223.213705)"><g><path d="M 42.078125 0 C 33.992188 0 27.4375 -2.472656 22.40625 -7.421875 C 17.375 -12.378906 14.859375 -18.570312 14.859375 -26 L 14.859375 -147.296875 C 14.859375 -154.722656 17.375 -160.910156 22.40625 -165.859375 C 27.4375 -170.816406 33.992188 -173.296875 42.078125 -173.296875 L 118.828125 -173.296875 C 126.910156 -173.296875 133.46875 -170.816406 138.5 -165.859375 C 143.539062 -160.910156 146.0625 -154.722656 146.0625 -147.296875 C 146.0625 -139.867188 143.539062 -133.679688 138.5 -128.734375 C 133.46875 -123.785156 126.910156 -121.3125 118.828125 -121.3125 L 69.3125 -121.3125 L 69.3125 -108.921875 L 102.734375 -108.921875 C 106.367188 -108.921875 109.796875 -108.257812 113.015625 -106.9375 C 116.234375 -105.625 118.992188 -103.851562 121.296875 -101.625 C 123.609375 -99.394531 125.425781 -96.796875 126.75 -93.828125 C 128.070312 -90.859375 128.734375 -87.640625 128.734375 -84.171875 C 128.734375 -80.703125 128.070312 -77.484375 126.75 -74.515625 C 125.425781 -71.546875 123.609375 -68.945312 121.296875 -66.71875 C 118.992188 -64.488281 116.234375 -62.710938 113.015625 -61.390625 C 109.796875 -60.078125 106.367188 -59.421875 102.734375 -59.421875 L 69.3125 -59.421875 L 69.3125 -26 C 69.3125 -18.570312 66.796875 -12.378906 61.765625 -7.421875 C 56.734375 -2.472656 50.171875 0 42.078125 0 Z M 42.078125 0 "/></g></g></g><g fill="#ffffff" fill-opacity="1"><g transform="translate(666.882919, 223.213705)"><g><path d="M 71.796875 0 C 63.703125 0 57.140625 -2.472656 52.109375 -7.421875 C 47.078125 -12.378906 44.5625 -18.570312 44.5625 -26 L 44.5625 -121.3125 L 27.234375 -121.3125 C 19.140625 -121.3125 12.578125 -123.785156 7.546875 -128.734375 C 2.515625 -133.679688 0 -139.867188 0 -147.296875 C 0 -154.722656 2.515625 -160.910156 7.546875 -165.859375 C 12.578125 -170.816406 19.140625 -173.296875 27.234375 -173.296875 L 116.359375 -173.296875 C 124.441406 -173.296875 131 -170.816406 136.03125 -165.859375 C 141.070312 -160.910156 143.59375 -154.722656 143.59375 -147.296875 C 143.59375 -139.867188 141.070312 -133.679688 136.03125 -128.734375 C 131 -123.785156 124.441406 -121.3125 116.359375 -121.3125 L 99.03125 -121.3125 L 99.03125 -26 C 99.03125 -18.570312 96.507812 -12.378906 91.46875 -7.421875 C 86.4375 -2.472656 79.878906 0 71.796875 0 Z M 71.796875 0 "/></g></g></g><g clip-path="url(#6b09637c72)"><g transform="matrix(1, 0, 0, 1, 806, 1)"><g clip-path="url(#bfd6b5af7e)"><g fill="#5046e4" fill-opacity="1"><g transform="translate(6.23613, 222.441921)"><g><path d="M 30.945312 4.640625 C 20.945312 4.640625 12.9375 1.730469 6.921875 -4.089844 C 0.863281 -9.953125 -2.167969 -17.253906 -2.167969 -25.992188 C -2.167969 -27.773438 -1.972656 -29.671875 -1.589844 -31.691406 C -1.21875 -33.625 -0.753906 -35.433594 -0.195312 -37.117188 L -0.175781 -37.175781 L -0.152344 -37.234375 C 0.523438 -39.097656 1.199219 -40.875 1.878906 -42.570312 L 47.714844 -157.785156 L 47.761719 -157.886719 C 49.625 -161.984375 52.136719 -165.707031 55.296875 -169.054688 C 57.957031 -171.90625 61.503906 -174.484375 65.9375 -176.792969 C 70.570312 -179.207031 76.234375 -180.410156 82.933594 -180.410156 C 89.453125 -180.410156 95.066406 -179.210938 99.773438 -176.808594 C 104.300781 -174.5 107.90625 -171.90625 110.589844 -169.035156 C 113.734375 -165.703125 116.242188 -161.984375 118.105469 -157.886719 L 118.152344 -157.785156 L 164.039062 -42.441406 L 165.816406 -37.117188 C 166.351562 -35.503906 166.84375 -33.761719 167.289062 -31.898438 C 167.785156 -29.808594 168.035156 -27.84375 168.035156 -25.992188 C 168.035156 -17.253906 165.003906 -9.953125 158.945312 -4.089844 C 152.929688 1.730469 144.921875 4.640625 134.921875 4.640625 C 129.101562 4.640625 124.128906 3.382812 120.003906 0.867188 C 116.15625 -1.476562 113.070312 -4.101562 110.75 -7.003906 C 108.113281 -10.390625 106.050781 -14.128906 104.566406 -18.21875 L 104.542969 -18.277344 L 102.046875 -25.765625 L 106.453125 -27.230469 L 106.453125 -22.589844 L 59.414062 -22.589844 L 59.414062 -27.230469 L 63.820312 -25.765625 L 61.292969 -18.191406 L 61.234375 -18.046875 C 59.589844 -14.023438 57.480469 -10.359375 54.910156 -7.050781 C 52.574219 -4.132812 49.53125 -1.5 45.785156 0.839844 C 41.730469 3.375 36.785156 4.640625 30.945312 4.640625 Z M 30.945312 -4.640625 C 35.007812 -4.640625 38.316406 -5.4375 40.863281 -7.03125 C 43.71875 -8.8125 45.957031 -10.722656 47.582031 -12.753906 C 49.632812 -15.386719 51.320312 -18.324219 52.644531 -21.5625 L 56.941406 -19.804688 L 52.535156 -21.273438 L 56.070312 -31.875 L 109.796875 -31.875 L 113.332031 -21.273438 L 108.929688 -19.804688 L 113.289062 -21.390625 C 114.445312 -18.21875 116.011719 -15.355469 118 -12.800781 C 119.640625 -10.753906 121.917969 -8.835938 124.835938 -7.058594 C 127.476562 -5.445312 130.839844 -4.640625 134.921875 -4.640625 C 142.417969 -4.640625 148.273438 -6.683594 152.488281 -10.761719 C 156.664062 -14.800781 158.75 -19.878906 158.75 -25.992188 C 158.75 -27.117188 158.585938 -28.367188 158.257812 -29.746094 C 157.875 -31.347656 157.460938 -32.824219 157.007812 -34.179688 L 155.273438 -39.378906 L 159.679688 -40.847656 L 155.367188 -39.132812 L 109.566406 -154.25 L 113.878906 -155.964844 L 109.652344 -154.042969 C 108.214844 -157.207031 106.265625 -160.089844 103.800781 -162.699219 C 101.863281 -164.777344 99.113281 -166.726562 95.554688 -168.539062 C 92.171875 -170.265625 87.964844 -171.128906 82.933594 -171.128906 C 77.75 -171.128906 73.511719 -170.273438 70.222656 -168.558594 C 66.734375 -166.742188 64.007812 -164.78125 62.046875 -162.679688 C 59.59375 -160.085938 57.652344 -157.207031 56.214844 -154.042969 L 51.988281 -155.964844 L 56.300781 -154.25 L 10.5 -39.125 C 9.855469 -37.519531 9.214844 -35.832031 8.570312 -34.0625 L 4.207031 -35.648438 L 8.613281 -34.179688 C 8.183594 -32.890625 7.820312 -31.484375 7.53125 -29.953125 C 7.253906 -28.507812 7.117188 -27.1875 7.117188 -25.992188 C 7.117188 -19.878906 9.203125 -14.800781 13.378906 -10.761719 C 17.59375 -6.683594 23.449219 -4.640625 30.945312 -4.640625 Z M 89.671875 -65.375 L 79.769531 -95.082031 L 84.171875 -96.550781 L 84.171875 -91.90625 L 81.695312 -91.90625 L 81.695312 -96.550781 L 86.097656 -95.082031 L 76.195312 -65.375 L 71.792969 -66.84375 L 71.792969 -71.484375 L 94.074219 -71.484375 L 94.074219 -66.84375 Z M 100.515625 -62.199219 L 65.351562 -62.199219 L 78.351562 -101.191406 L 87.515625 -101.191406 L 98.476562 -68.308594 Z M 100.515625 -62.199219 "/></g></g></g><g fill="#5046e4" fill-opacity="1"><g transform="translate(172.103182, 222.441921)"><g><path d="M 42.085938 4.640625 C 32.730469 4.640625 25.085938 1.722656 19.148438 -4.117188 C 13.191406 -9.976562 10.210938 -17.269531 10.210938 -25.992188 L 10.210938 -147.300781 C 10.210938 -156.023438 13.191406 -163.316406 19.148438 -169.175781 C 25.085938 -175.015625 32.730469 -177.9375 42.085938 -177.9375 C 46.714844 -177.9375 51.066406 -177.015625 55.140625 -175.171875 C 58.855469 -173.488281 62.148438 -171.664062 65.015625 -169.691406 L 65.058594 -169.660156 L 65.105469 -169.628906 C 68.355469 -167.28125 71.332031 -164.578125 74.035156 -161.511719 L 70.554688 -158.441406 L 73.957031 -161.597656 L 106.140625 -126.941406 L 102.738281 -123.78125 L 99.335938 -126.941406 L 131.519531 -161.597656 L 134.921875 -158.441406 L 131.441406 -161.511719 C 134.144531 -164.578125 137.121094 -167.28125 140.375 -169.628906 L 140.460938 -169.691406 C 143.316406 -171.65625 146.554688 -173.476562 150.175781 -175.152344 C 154.179688 -177.007812 158.582031 -177.9375 163.390625 -177.9375 C 172.746094 -177.9375 180.390625 -175.015625 186.328125 -169.175781 C 192.285156 -163.316406 195.265625 -156.023438 195.265625 -147.300781 L 195.265625 -25.992188 C 195.265625 -17.269531 192.285156 -9.976562 186.328125 -4.117188 C 180.390625 1.722656 172.746094 4.640625 163.390625 4.640625 C 154.039062 4.640625 146.390625 1.722656 140.457031 -4.117188 C 134.496094 -9.976562 131.519531 -17.269531 131.519531 -25.992188 L 131.519531 -89.121094 L 136.160156 -89.121094 L 139.570312 -85.972656 L 124.652344 -69.816406 L 124.589844 -69.75 C 122.765625 -67.925781 120.847656 -66.285156 118.835938 -64.820312 C 116.816406 -63.40625 114.503906 -62.214844 111.902344 -61.25 C 109.152344 -60.234375 106.097656 -59.726562 102.738281 -59.726562 C 99.378906 -59.726562 96.324219 -60.234375 93.574219 -61.25 C 90.972656 -62.214844 88.683594 -63.386719 86.707031 -64.773438 C 84.652344 -66.269531 82.710938 -67.925781 80.890625 -69.75 L 80.824219 -69.816406 L 65.90625 -85.972656 L 69.316406 -89.121094 L 73.960938 -89.121094 L 73.960938 -25.992188 C 73.960938 -17.269531 70.980469 -9.976562 65.023438 -4.117188 C 59.085938 1.722656 51.441406 4.640625 42.085938 4.640625 Z M 42.085938 -4.640625 C 48.90625 -4.640625 54.382812 -6.671875 58.511719 -10.734375 C 62.621094 -14.777344 64.675781 -19.863281 64.675781 -25.992188 L 64.675781 -100.996094 L 87.582031 -76.179688 L 84.171875 -73.03125 L 87.453125 -76.3125 C 88.933594 -74.835938 90.457031 -73.523438 92.03125 -72.378906 C 93.355469 -71.449219 94.945312 -70.644531 96.800781 -69.957031 C 98.507812 -69.324219 100.488281 -69.007812 102.738281 -69.007812 C 104.988281 -69.007812 106.96875 -69.324219 108.675781 -69.957031 C 110.53125 -70.644531 112.097656 -71.433594 113.375 -72.328125 C 114.996094 -73.507812 116.546875 -74.835938 118.023438 -76.3125 L 121.304688 -73.03125 L 117.894531 -76.179688 L 140.800781 -100.996094 L 140.800781 -25.992188 C 140.800781 -19.863281 142.855469 -14.777344 146.964844 -10.734375 C 151.097656 -6.671875 156.570312 -4.640625 163.390625 -4.640625 C 170.210938 -4.640625 175.6875 -6.671875 179.816406 -10.734375 C 183.925781 -14.777344 185.980469 -19.863281 185.980469 -25.992188 L 185.980469 -147.300781 C 185.980469 -153.429688 183.925781 -158.515625 179.816406 -162.558594 C 175.6875 -166.621094 170.210938 -168.652344 163.390625 -168.652344 C 159.949219 -168.652344 156.84375 -168.011719 154.078125 -166.730469 C 150.933594 -165.273438 148.148438 -163.710938 145.722656 -162.042969 L 143.089844 -165.867188 L 145.808594 -162.105469 C 143.117188 -160.160156 140.648438 -157.914062 138.402344 -155.371094 L 138.363281 -155.324219 L 102.738281 -116.960938 L 67.113281 -155.324219 L 67.074219 -155.371094 C 64.828125 -157.914062 62.359375 -160.160156 59.667969 -162.105469 L 62.386719 -165.867188 L 59.757812 -162.042969 C 57.34375 -163.703125 54.527344 -165.257812 51.3125 -166.714844 C 48.453125 -168.007812 45.378906 -168.652344 42.085938 -168.652344 C 35.265625 -168.652344 29.789062 -166.621094 25.660156 -162.558594 C 21.550781 -158.515625 19.496094 -153.429688 19.496094 -147.300781 L 19.496094 -25.992188 C 19.496094 -19.863281 21.550781 -14.777344 25.660156 -10.734375 C 29.789062 -6.671875 35.265625 -4.640625 42.085938 -4.640625 Z M 42.085938 -4.640625 "/></g></g></g><g fill="#5046e4" fill-opacity="1"><g transform="translate(377.580218, 222.441921)"><g><path d="M 42.085938 4.640625 C 32.730469 4.640625 25.085938 1.722656 19.148438 -4.117188 C 13.191406 -9.976562 10.210938 -17.269531 10.210938 -25.992188 L 10.210938 -147.300781 C 10.210938 -156.023438 13.191406 -163.316406 19.148438 -169.175781 C 25.085938 -175.015625 32.730469 -177.9375 42.085938 -177.9375 L 94.074219 -177.9375 C 105.164062 -177.9375 115.082031 -176.40625 123.828125 -173.34375 C 132.679688 -170.246094 140.183594 -165.882812 146.34375 -160.257812 C 152.53125 -154.609375 157.285156 -147.933594 160.601562 -140.222656 C 163.90625 -132.539062 165.558594 -124.171875 165.558594 -115.117188 C 165.558594 -106.0625 163.90625 -97.695312 160.601562 -90.011719 C 157.285156 -82.300781 152.53125 -75.625 146.34375 -69.972656 C 140.183594 -64.347656 132.679688 -59.988281 123.828125 -56.890625 C 115.082031 -53.828125 105.164062 -52.296875 94.074219 -52.296875 L 69.316406 -52.296875 L 69.316406 -56.941406 L 73.960938 -56.941406 L 73.960938 -25.992188 C 73.960938 -17.269531 70.980469 -9.976562 65.023438 -4.117188 C 59.085938 1.722656 51.441406 4.640625 42.085938 4.640625 Z M 42.085938 -4.640625 C 48.90625 -4.640625 54.382812 -6.671875 58.511719 -10.734375 C 62.621094 -14.777344 64.675781 -19.863281 64.675781 -25.992188 L 64.675781 -61.582031 L 94.074219 -61.582031 C 104.109375 -61.582031 113.007812 -62.9375 120.761719 -65.652344 C 128.417969 -68.332031 134.859375 -72.058594 140.085938 -76.832031 C 145.285156 -81.578125 149.28125 -87.195312 152.070312 -93.679688 C 154.875 -100.191406 156.273438 -107.335938 156.273438 -115.117188 C 156.273438 -122.898438 154.875 -130.042969 152.070312 -136.554688 C 149.28125 -143.039062 145.285156 -148.652344 140.085938 -153.402344 C 134.859375 -158.175781 128.417969 -161.902344 120.761719 -164.582031 C 113.007812 -167.296875 104.109375 -168.652344 94.074219 -168.652344 L 42.085938 -168.652344 C 35.265625 -168.652344 29.789062 -166.621094 25.660156 -162.558594 C 21.550781 -158.515625 19.496094 -153.429688 19.496094 -147.300781 L 19.496094 -25.992188 C 19.496094 -19.863281 21.550781 -14.777344 25.660156 -10.734375 C 29.789062 -6.671875 35.265625 -4.640625 42.085938 -4.640625 Z M 94.074219 -111.09375 C 95.972656 -111.09375 97.339844 -111.492188 98.175781 -112.289062 C 98.949219 -113.023438 99.335938 -113.96875 99.335938 -115.117188 C 99.335938 -116.265625 98.949219 -117.207031 98.175781 -117.945312 C 97.339844 -118.742188 95.972656 -119.140625 94.074219 -119.140625 L 69.316406 -119.140625 L 69.316406 -123.78125 L 73.960938 -123.78125 L 73.960938 -106.453125 L 69.316406 -106.453125 L 69.316406 -111.09375 Z M 94.074219 -101.808594 L 64.675781 -101.808594 L 64.675781 -128.421875 L 94.074219 -128.421875 C 98.449219 -128.421875 101.949219 -127.171875 104.578125 -124.667969 C 107.273438 -122.101562 108.617188 -118.917969 108.617188 -115.117188 C 108.617188 -111.316406 107.273438 -108.132812 104.578125 -105.566406 C 101.949219 -103.0625 98.449219 -101.808594 94.074219 -101.808594 Z M 94.074219 -101.808594 "/></g></g></g></g></g></g><g fill="#5046e4" fill-opacity="1"><g transform="translate(1371.302727, 212.088078)"><g><path d="M 30.984375 13.546875 C 30.984375 19.285156 28.113281 22.15625 22.375 22.15625 L 19.359375 22.15625 C 13.617188 22.15625 10.75 19.285156 10.75 13.546875 L 10.75 -165.234375 C 10.75 -170.960938 13.617188 -173.828125 19.359375 -173.828125 L 22.375 -173.828125 C 28.113281 -173.828125 30.984375 -170.960938 30.984375 -165.234375 Z M 30.984375 13.546875 "/></g></g></g></g></g></svg>